<svg xmlns="http://www.w3.org/2000/svg" fill="none" viewBox="0 0 348 348"><defs/><path stroke="#000" stroke-width="2" d="M5 6h337v337H5z"/><path stroke="#000" stroke-width="2" d="M283 41c0-9 7-16 15-16 4 0 8 2 11 5s5 7 5 11c0 8-7 15-16 15-8 0-15-7-15-15z"/><circle cx="165.8" cy="179.5" r="138.8" fill="#fff" stroke="#000" stroke-width="2.5"/><path fill="#000" stroke-width="1.8" d="M55.5156626 165v1l-1-1zm8 21v-1zm20-14v5l-1 1-1 2-1 1h-1l-1 1-4 2h-8l-1 1h-1l-1 1h2v1l-1 1v7l1 2h1l2 1v1h1l1 1-1 1v1h-13l-1-1 1-2 1-1h1l1-1h1v-29h1l1-1h-3v-1h-1v-1h-1l-1 1v-2h-1l1-1 1-1h15l2 1h2l1 1h1l1 1 1 1h1v1l1 1v1h1zm-4 2l-1-3-1-3-3-1-3-1h-5l-1 1h-1l-1 1v1l1 1v5h-1v1l1 2 1 1h1l1 1h1l2-1h4v-1h3l1-1 1-1zm42-11l-1 1-1 1h-1l-1 1h-2v2l-1 1-1 1 1 1v5l1 2h-1v3l1 3v2l-1 1v1l1 1v2l-1 2v1l-2 1v1l1 1h-1v1h-1v1h-1v1h-1l-1 1h-1l-2 1h-3l-1-1h-4l-1-1h-1l-1-1-1-1v-2l-1-2v-4l-1-2v-5l1-2-1-4v-4l1-1v-2l-1-1v-3l-1-1-2-1h-1l-1-1 1-1 1-1h10l2 1v2l-1 1-1 1-2 1v2l-1 1v14l-1 1h1v-1 1h1v7l1 1v1l1 1 1 1 1 1h1l1 1 1 1v1l1-1h1v1h1v-2h-1v-1h1l1-1h1l1-1v-1l1-1v-4l1-1-1-2v-2l1-1-1-1v-4l1-2-1-3v-4h1l-1-1h-1v-2h-2l-1-1h-1v-1l-1-2h1v-1h7l1-1 1 1h4l1 1h1v1zm32 25v5h-2v1h1v1l-1 1-1 1v1h-3v2h-2l-1 1h-2l-2 1-3 1-2-1h-1l-2-1h-4v1h-1l-1-1-1-1-1-2v-2l1-1-1-1v-3l1-1h-1v-1l1-1v-3l1 1 1 1 1 2v5l1 1h1l2 1 1 2h8l2-1 1-1 1-1 1-1h1l1-1v-1l1-1v-4l-1-1-1-1h-1l-1-1-1-1h-3l-1-1-1 1h-1l-1-1h-3l-1-1h-1l-3-2-1-1v-1h-1v-1l-1-1v-2l-1-1 1-1v-3l1-1 1-1 1-1 1-1 1-1h2l1-1h9l1 1h2v-1h3v2l1 1v4h1l-1 1v6h-2v-1l-1-1v-2l-1-1-1-1v-1l-1-1h-1l-1-1h-3l-1-1-2 1h-1l-2 1-2 1v5l1 2 1 1h1l2 1h4l1 1h5v1h2l1 1 1 1 1 1v1l1 1v1h1zm39 12v1h-2l-1 1h-6l-1 1h-2v-1h-2l-1-1v-1l1-1 1-1h2l1 1v-2h1v-11l-1-1v-1l-1-1h-7l-1 1h-4l-1 1v4l-1 1v1l1 1-1 1v1l1 1v1l1 1 1 1h1l2 1v3h-1l-1 1h-1l-1-1-4 1h-4l-1-1h-2v-3h1v-1h2l1-1 1-1 1-2v-7l-1-3 1-1v-1l-1-1v-2l1-1v-6h-1v-1h1v-2l-1-1v-1h-1l-1-1h-2l-1-1v-2l1-1h12v1l1 1v1h-2l-2 1-1 1v4l1 2-1 2v1l1 2 1 1h7l1 1h3v-1h2v-1l1-1v-3l-1-1v-6l-1-1h-3l-1-1-1-1v-1l1-1h12l2 1v2l-1 1h-2l-1 1h-1v20l1 2-1 1v1l1 1-1 2v1l1 1v1l1 1h1l1 1h2zm46-36v1h-1v1h-7v1l-1 1h-1v28l1 1h1l1 1 3-1h2l1 1 1 1v2l-1 1-1 1h-16l-1-1h-1l-1 1h-2l-2-1-1-1 1-1v-1l1-1 1-1v1h4l2-1 2-1 1-2-1-1v-9l1-2-1-1v-6l1-2-1-1v-5h-1v-1h-1l-1-1v1h-1l-1 1h-3l-1-1h-1l-1-1 1-1v-1l1-1 1-1h11v-1l1 1h2v-1l1 1v1l1-1h1l1 1h1l-1-1h1l1-1v1h2v2h1zm-14 2v-1h-1v2h1zm49 6v2l-1 1-1 1h-1v-2h-1v-1l-1-1v-2l-1-2 1-1v-2l-1-1h-5l-2 1h-1v10l1 2v2l-1 3 1 1v5h-1l1 1v1l-1 1 1 1v2l1 1 1 1h4l1 1v3h-1v1l-1-1h-1l-3 1h-3l-3 1h-4l-1-1h-2v-3h2l-1-1h3l1-1h2v-2l1-1-1-3v-3l1-1-1-1v-20h-1l-2-1h-4l-1 1-2 1v8h-1v2h-2v-7l-1-2v-2l1-2 1-2h27l2 1v6l1 2zm14-3l-1 1v5l-1 1v9l-1 1v2h1l-1 1v1l-1 1h-1l-1-1v-7l-1-1v-11l-1-2v-3l1-1v-2l1-1 1-1h2v1h1l1 1v5zm-2 29v2l-1 1-1 1h-2l-1-1-1-1v-2l1-2 3-1h1l1 1z" aria-label="PUSH IT!" font-family="Special Elite" font-size="58.4" font-weight="700" letter-spacing="0" word-spacing="0"/><path fill="#fff" d="M275.88434 154.29398h17.609638v59.53735H275.88434z"/></svg>